TITLE ""
FILE "P1Q_t_0080-0088.mp3" MP3
  TRACK 01 AUDIO
    TITLE "P1Q_t_0080-0088_01"
    INDEX 01 00:00:00
  TRACK 02 AUDIO
    TITLE "P1Q_t_0080-0088_02"
    INDEX 01 00:01:22
  TRACK 03 AUDIO
    TITLE "P1Q_t_0080-0088_03"
    INDEX 01 00:01:43
  TRACK 04 AUDIO
    TITLE "P1Q_t_0080-0088_04"
    INDEX 01 00:07:71
  TRACK 05 AUDIO
    TITLE "P1Q_t_0080-0088_05"
    INDEX 01 00:08:16
  TRACK 06 AUDIO
    TITLE "P1Q_t_0080-0088_06"
    INDEX 01 00:13:23
  TRACK 07 AUDIO
    TITLE "P1Q_t_0080-0088_07"
    INDEX 01 00:13:70
  TRACK 08 AUDIO
    TITLE "P1Q_t_0080-0088_08"
    INDEX 01 00:15:06
  TRACK 09 AUDIO
    TITLE "P1Q_t_0080-0088_09"
    INDEX 01 00:15:27
  TRACK 10 AUDIO
    TITLE "P1Q_t_0080-0088_10"
    INDEX 01 00:18:26
  TRACK 11 AUDIO
    TITLE "P1Q_t_0080-0088_11"
    INDEX 01 00:18:47
  TRACK 12 AUDIO
    TITLE "P1Q_t_0080-0088_12"
    INDEX 01 00:24:17
  TRACK 13 AUDIO
    TITLE "P1Q_t_0080-0088_13"
    INDEX 01 00:24:62
  TRACK 14 AUDIO
    TITLE "P1Q_t_0080-0088_14"
    INDEX 01 00:26:00
  TRACK 15 AUDIO
    TITLE "P1Q_t_0080-0088_15"
    INDEX 01 00:26:19
  TRACK 16 AUDIO
    TITLE "P1Q_t_0080-0088_16"
    INDEX 01 00:30:27
  TRACK 17 AUDIO
    TITLE "P1Q_t_0080-0088_17"
    INDEX 01 00:30:47
  TRACK 18 AUDIO
    TITLE "P1Q_t_0080-0088_18"
    INDEX 01 00:34:70
  TRACK 19 AUDIO
    TITLE "P1Q_t_0080-0088_19"
    INDEX 01 00:35:40
  TRACK 20 AUDIO
    TITLE "P1Q_t_0080-0088_20"
    INDEX 01 00:36:57
  TRACK 21 AUDIO
    TITLE "P1Q_t_0080-0088_21"
    INDEX 01 00:37:04
  TRACK 22 AUDIO
    TITLE "P1Q_t_0080-0088_22"
    INDEX 01 00:39:28
  TRACK 23 AUDIO
    TITLE "P1Q_t_0080-0088_23"
    INDEX 01 00:39:48
  TRACK 24 AUDIO
    TITLE "P1Q_t_0080-0088_24"
    INDEX 01 00:44:35
  TRACK 25 AUDIO
    TITLE "P1Q_t_0080-0088_25"
    INDEX 01 00:45:09
  TRACK 26 AUDIO
    TITLE "P1Q_t_0080-0088_26"
    INDEX 01 00:46:30
  TRACK 27 AUDIO
    TITLE "P1Q_t_0080-0088_27"
    INDEX 01 00:47:02
  TRACK 28 AUDIO
    TITLE "P1Q_t_0080-0088_28"
    INDEX 01 00:48:05
  TRACK 29 AUDIO
    TITLE "P1Q_t_0080-0088_29"
    INDEX 01 00:48:27
  TRACK 30 AUDIO
    TITLE "P1Q_t_0080-0088_30"
    INDEX 01 00:50:59
  TRACK 31 AUDIO
    TITLE "P1Q_t_0080-0088_31"
    INDEX 01 00:51:06
  TRACK 32 AUDIO
    TITLE "P1Q_t_0080-0088_32"
    INDEX 01 00:56:42
  TRACK 33 AUDIO
    TITLE "P1Q_t_0080-0088_33"
    INDEX 01 00:57:12
  TRACK 34 AUDIO
    TITLE "P1Q_t_0080-0088_34"
    INDEX 01 00:58:29
  TRACK 35 AUDIO
    TITLE "P1Q_t_0080-0088_35"
    INDEX 01 00:58:51
  TRACK 36 AUDIO
    TITLE "P1Q_t_0080-0088_36"
    INDEX 01 01:01:51
  TRACK 37 AUDIO
    TITLE "P1Q_t_0080-0088_37"
    INDEX 01 01:01:71
  TRACK 38 AUDIO
    TITLE "P1Q_t_0080-0088_38"
    INDEX 01 01:08:00
  TRACK 39 AUDIO
    TITLE "P1Q_t_0080-0088_39"
    INDEX 01 01:08:47
  TRACK 40 AUDIO
    TITLE "P1Q_t_0080-0088_40"
    INDEX 01 01:09:74
  TRACK 41 AUDIO
    TITLE "P1Q_t_0080-0088_41"
    INDEX 01 01:10:21
  TRACK 42 AUDIO
    TITLE "P1Q_t_0080-0088_42"
    INDEX 01 01:12:59
  TRACK 43 AUDIO
    TITLE "P1Q_t_0080-0088_43"
    INDEX 01 01:13:03
  TRACK 44 AUDIO
    TITLE "P1Q_t_0080-0088_44"
    INDEX 01 01:18:55
  TRACK 45 AUDIO
    TITLE "P1Q_t_0080-0088_45"
    INDEX 01 01:19:27
  TRACK 46 AUDIO
    TITLE "P1Q_t_0080-0088_46"
    INDEX 01 01:20:52
  TRACK 47 AUDIO
    TITLE "P1Q_t_0080-0088_47"
    INDEX 01 01:21:01
  TRACK 48 AUDIO
    TITLE "P1Q_t_0080-0088_48"
    INDEX 01 01:23:51
  TRACK 49 AUDIO
    TITLE "P1Q_t_0080-0088_49"
    INDEX 01 01:23:70
  TRACK 50 AUDIO
    TITLE "P1Q_t_0080-0088_50"
    INDEX 01 01:29:28
  TRACK 51 AUDIO
    TITLE "P1Q_t_0080-0088_51"
    INDEX 01 01:30:06
  TRACK 52 AUDIO
    TITLE "P1Q_t_0080-0088_52"
    INDEX 01 01:31:25
  TRACK 53 AUDIO
    TITLE "P1Q_t_0080-0088_53"
    INDEX 01 01:31:48
  TRACK 54 AUDIO
    TITLE "P1Q_t_0080-0088_54"
    INDEX 01 01:34:15
  TRACK 55 AUDIO
    TITLE "P1Q_t_0080-0088_55"
    INDEX 01 01:34:37
  TRACK 56 AUDIO
    TITLE "P1Q_t_0080-0088_56"
    INDEX 01 01:39:09
